# Blender v2.78 (sub 0) OBJ File: ''
# www.blender.org
o Cylinder
v -0.023669 0.855318 -0.845868
v -0.023669 6.474038 -0.127398
v 0.717058 0.855318 -0.418208
v 0.094846 6.474038 -0.058974
v 0.717058 0.855318 0.437110
v 0.094846 6.474038 0.077876
v -0.023669 0.855318 0.864769
v -0.023669 6.474038 0.146300
v -0.764397 0.855318 0.437110
v -0.142184 6.474038 0.077876
v -0.764397 0.855318 -0.418208
v -0.142184 6.474038 -0.058974
v -0.022966 1.944890 -0.876950
v -0.023669 3.072956 -0.692624
v -0.023669 3.784942 -0.560015
v -0.023669 4.599408 -0.501165
v -0.023669 5.536723 -0.378819
v 0.312582 5.536723 -0.184684
v 0.418537 4.599408 -0.245857
v 0.469503 3.784942 -0.275282
v 0.584345 3.072955 -0.341586
v 0.723122 1.944890 -0.446196
v 0.312582 5.536723 0.203586
v 0.418537 4.599408 0.264759
v 0.469503 3.784942 0.294184
v 0.584345 3.072955 0.360488
v 0.723122 1.944890 0.415312
v -0.023669 5.536723 0.397721
v -0.023669 4.599408 0.520067
v -0.023669 3.784942 0.578917
v -0.023669 3.072955 0.711526
v -0.022966 1.944890 0.846066
v -0.359921 5.536723 0.203586
v -0.465876 4.599408 0.264759
v -0.516842 3.784942 0.294184
v -0.631684 3.072955 0.360488
v -0.769054 1.944890 0.415312
v -0.359921 5.536723 -0.184684
v -0.465876 4.599408 -0.245857
v -0.516842 3.784942 -0.275282
v -0.631684 3.072955 -0.341586
v -0.769054 1.944890 -0.446196
v -0.023669 5.357990 -0.620366
v 0.521768 5.392690 -0.305457
v 0.521768 5.392690 0.324360
v -0.023669 5.357990 0.639268
v -0.569107 5.392690 0.324359
v -0.569107 5.392690 -0.305457
v -0.023669 4.420675 -0.895508
v 0.760048 4.455375 -0.443028
v 0.760048 4.455375 0.461931
v -0.023669 4.420675 0.914410
v -0.807387 4.455375 0.461930
v -0.807387 4.455375 -0.443028
v -0.023669 3.606210 -1.209466
v 1.031944 3.655359 -0.600008
v 1.031944 3.655359 0.618910
v -0.023669 3.606210 1.228368
v -1.079283 3.655359 0.618910
v -1.079283 3.655359 -0.600008
v -0.023669 2.722566 -1.532464
v 1.311668 2.791344 -0.761507
v 1.311668 2.791344 0.780409
v -0.023669 2.722565 1.551366
v -1.359007 2.791344 0.780408
v -1.359007 2.791344 -0.761506
v -0.022966 1.750794 -1.962869
v 1.663555 1.823617 -0.989156
v 1.663555 1.823617 0.958272
v -0.022967 1.750793 1.931985
v -1.709488 1.823617 0.958272
v -1.709488 1.823617 -0.989156
v 1.921214 0.882740 -1.113428
v 1.921214 0.882740 1.132330
v -0.023669 0.805184 2.255209
v -1.968553 0.882740 1.132330
v -1.968553 0.882740 -1.113428
v -0.023669 0.805184 -2.236307
v -0.004930 2.139383 0.423909
v -0.003524 0.004693 0.531782
v 0.419621 0.004693 0.279792
v 0.350158 2.139383 0.212448
v 0.419621 0.004693 -0.224189
v 0.350158 2.139383 -0.210474
v -0.003524 0.004693 -0.476180
v -0.004930 2.139383 -0.421935
v -0.426670 0.004693 -0.224189
v -0.360018 2.139383 -0.210474
v -0.426670 0.004693 0.279792
v -0.360018 2.139383 0.212448
vt 1.0000 0.0000
vt 0.0000 1.0000
vt 0.0000 0.0000
vt 1.0000 0.0000
vt 0.0000 1.0000
vt 0.0000 0.0000
vt 0.0000 0.0000
vt 1.0000 1.0000
vt 0.0000 1.0000
vt 1.0000 0.0000
vt 0.0000 1.0000
vt 0.0000 0.0000
vt 0.9330 0.7500
vt 0.5000 0.0000
vt 0.0670 0.7500
vt 1.0000 0.0000
vt 0.0000 1.0000
vt 0.0000 0.0000
vt 0.0000 0.0000
vt 1.0000 1.0000
vt 0.0000 1.0000
vt 0.9330 0.7500
vt 0.5000 0.0000
vt 0.5000 1.0000
vt 1.0000 0.0000
vt 0.0000 1.0000
vt 0.0000 0.0000
vt 0.0000 0.0000
vt 1.0000 1.0000
vt 0.0000 1.0000
vt 0.0000 0.0000
vt 1.0000 1.0000
vt 0.0000 1.0000
vt 0.0000 0.0000
vt 1.0000 1.0000
vt 0.0000 1.0000
vt 0.0000 0.0000
vt 1.0000 1.0000
vt 0.0000 1.0000
vt 1.0000 0.0000
vt 0.0000 1.0000
vt 0.0000 0.0000
vt 0.0000 0.0000
vt 1.0000 1.0000
vt 0.0000 1.0000
vt 1.0000 0.0000
vt 0.0000 1.0000
vt 0.0000 0.0000
vt 1.0000 0.0000
vt 0.0000 1.0000
vt 0.0000 0.0000
vt 1.0000 0.0000
vt 0.0000 1.0000
vt 0.0000 0.0000
vt 1.0000 0.0000
vt 0.0000 1.0000
vt 0.0000 0.0000
vt 1.0000 0.0000
vt 0.0000 1.0000
vt 0.0000 0.0000
vt 1.0000 0.0000
vt 0.0000 1.0000
vt 0.0000 0.0000
vt 1.0000 0.0000
vt 0.0000 1.0000
vt 0.0000 0.0000
vt 1.0000 0.0000
vt 0.0000 1.0000
vt 0.0000 0.0000
vt 0.0000 0.0000
vt 1.0000 1.0000
vt 0.0000 1.0000
vt 0.0000 0.0000
vt 1.0000 1.0000
vt 0.0000 1.0000
vt 0.0000 0.0000
vt 1.0000 1.0000
vt 0.0000 1.0000
vt 0.0000 0.0000
vt 1.0000 1.0000
vt 0.0000 1.0000
vt 0.0000 0.0000
vt 1.0000 1.0000
vt 0.0000 1.0000
vt 0.0000 0.0000
vt 1.0000 1.0000
vt 0.0000 1.0000
vt 1.0000 0.0000
vt 0.0000 1.0000
vt 0.0000 0.0000
vt 1.0000 0.0000
vt 0.0000 1.0000
vt 0.0000 0.0000
vt 1.0000 0.0000
vt 0.0000 1.0000
vt 0.0000 0.0000
vt 1.0000 0.0000
vt 0.0000 1.0000
vt 0.0000 0.0000
vt 0.0000 0.0000
vt 1.0000 1.0000
vt 0.0000 1.0000
vt 1.0000 0.0000
vt 0.0000 1.0000
vt 0.0000 0.0000
vt 1.0000 0.0000
vt 0.0000 1.0000
vt 0.0000 0.0000
vt 1.0000 0.0000
vt 0.0000 1.0000
vt 0.0000 0.0000
vt 1.0000 0.0000
vt 0.0000 1.0000
vt 0.0000 0.0000
vt 1.0000 0.0000
vt 0.0000 1.0000
vt 0.0000 0.0000
vt 1.0000 0.0000
vt 0.0000 1.0000
vt 0.0000 0.0000
vt 0.0000 0.0000
vt 1.0000 1.0000
vt 0.0000 1.0000
vt 1.0000 0.0000
vt 0.0000 1.0000
vt 0.0000 0.0000
vt 1.0000 0.0000
vt 0.0000 1.0000
vt 0.0000 0.0000
vt 0.0000 0.0000
vt 1.0000 1.0000
vt 0.0000 1.0000
vt 0.0000 0.0000
vt 1.0000 1.0000
vt 0.0000 1.0000
vt 1.0000 0.0000
vt 0.0000 1.0000
vt 0.0000 0.0000
vt 1.0000 0.0000
vt 0.0000 1.0000
vt 0.0000 0.0000
vt 0.0000 0.0000
vt 1.0000 1.0000
vt 0.0000 1.0000
vt 1.0000 0.0000
vt 0.0000 1.0000
vt 0.0000 0.0000
vt 1.0000 0.0000
vt 0.0000 1.0000
vt 0.0000 0.0000
vt 0.0000 0.0000
vt 1.0000 1.0000
vt 0.0000 1.0000
vt 1.0000 0.0000
vt 0.0000 1.0000
vt 0.0000 0.0000
vt 1.0000 0.0000
vt 0.0000 1.0000
vt 0.0000 0.0000
vt 0.0000 0.0000
vt 1.0000 1.0000
vt 0.0000 1.0000
vt 0.0000 0.0000
vt 1.0000 1.0000
vt 0.0000 1.0000
vt 1.0000 0.0000
vt 0.0000 1.0000
vt 0.0000 0.0000
vt 0.0000 0.0000
vt 1.0000 1.0000
vt 0.0000 1.0000
vt 1.0000 0.0000
vt 0.0000 1.0000
vt 0.0000 0.0000
vt 1.0000 0.0000
vt 0.0000 1.0000
vt 0.0000 0.0000
vt 0.0000 0.0000
vt 1.0000 1.0000
vt 0.0000 1.0000
vt 1.0000 0.0000
vt 0.0000 1.0000
vt 0.0000 0.0000
vt 1.0000 0.0000
vt 0.0000 1.0000
vt 0.0000 0.0000
vt 0.0000 0.0000
vt 1.0000 1.0000
vt 0.0000 1.0000
vt 1.0000 0.0000
vt 0.0000 1.0000
vt 0.0000 0.0000
vt 1.0000 0.0000
vt 0.0000 1.0000
vt 0.0000 0.0000
vt 0.0000 0.0000
vt 1.0000 1.0000
vt 0.0000 1.0000
vt 1.0000 0.0000
vt 0.0000 1.0000
vt 0.0000 0.0000
vt 1.0000 0.0000
vt 0.0000 1.0000
vt 0.0000 0.0000
vt 0.0000 0.0000
vt 1.0000 1.0000
vt 0.0000 1.0000
vt 1.0000 0.0000
vt 0.0000 1.0000
vt 0.0000 0.0000
vt 1.0000 0.0000
vt 0.0000 1.0000
vt 0.0000 0.0000
vt 0.0000 0.0000
vt 1.0000 1.0000
vt 0.0000 1.0000
vt 1.0000 0.0000
vt 0.0000 1.0000
vt 0.0000 0.0000
vt 1.0000 0.0000
vt 0.0000 1.0000
vt 0.0000 0.0000
vt 0.9330 0.2500
vt 0.5000 0.0000
vt 0.0670 0.7500
vt 1.0000 0.0000
vt 0.0000 1.0000
vt 0.0000 0.0000
vt 1.0000 1.0000
vt 1.0000 1.0000
vt 1.0000 0.0000
vt 1.0000 1.0000
vt 0.5000 1.0000
vt 0.9330 0.2500
vt 0.0670 0.2500
vt 1.0000 1.0000
vt 1.0000 0.0000
vt 0.0670 0.7500
vt 0.9330 0.2500
vt 0.0670 0.2500
vt 1.0000 1.0000
vt 1.0000 0.0000
vt 1.0000 0.0000
vt 1.0000 0.0000
vt 1.0000 0.0000
vt 1.0000 1.0000
vt 1.0000 0.0000
vt 1.0000 1.0000
vt 1.0000 1.0000
vt 1.0000 1.0000
vt 1.0000 1.0000
vt 1.0000 1.0000
vt 1.0000 1.0000
vt 1.0000 1.0000
vt 1.0000 1.0000
vt 1.0000 0.0000
vt 1.0000 0.0000
vt 1.0000 0.0000
vt 1.0000 0.0000
vt 1.0000 0.0000
vt 1.0000 0.0000
vt 1.0000 1.0000
vt 1.0000 1.0000
vt 1.0000 1.0000
vt 1.0000 1.0000
vt 1.0000 0.0000
vt 1.0000 1.0000
vt 1.0000 1.0000
vt 1.0000 1.0000
vt 1.0000 1.0000
vt 1.0000 1.0000
vt 1.0000 1.0000
vt 1.0000 0.0000
vt 1.0000 1.0000
vt 1.0000 1.0000
vt 1.0000 0.0000
vt 1.0000 0.0000
vt 1.0000 1.0000
vt 1.0000 1.0000
vt 1.0000 0.0000
vt 1.0000 1.0000
vt 1.0000 1.0000
vt 1.0000 0.0000
vt 1.0000 1.0000
vt 1.0000 1.0000
vt 1.0000 0.0000
vt 1.0000 0.0000
vt 1.0000 1.0000
vt 1.0000 0.0000
vt 1.0000 1.0000
vt 1.0000 1.0000
vt 1.0000 0.0000
vt 1.0000 1.0000
vt 1.0000 1.0000
vt 1.0000 0.0000
vt 1.0000 1.0000
vt 1.0000 1.0000
vt 1.0000 0.0000
vt 1.0000 1.0000
vt 1.0000 1.0000
vt 1.0000 0.0000
vt 1.0000 1.0000
vt 1.0000 1.0000
vt 1.0000 0.0000
vt 1.0000 1.0000
vt 1.0000 1.0000
vt 0.5000 1.0000
vt 0.9330 0.7500
vt 0.0670 0.2500
vt 1.0000 1.0000
vt 0.0000 0.0000
vt 1.0000 1.0000
vt 0.0000 1.0000
vt 0.9330 0.7500
vt 0.0670 0.2500
vt 0.0670 0.7500
vt 0.0000 0.0000
vt 1.0000 1.0000
vt 0.0000 1.0000
vt 1.0000 0.0000
vt 0.0000 1.0000
vt 0.0000 0.0000
vt 1.0000 0.0000
vt 0.0000 1.0000
vt 0.0000 0.0000
vt 0.0000 0.0000
vt 1.0000 1.0000
vt 0.0000 1.0000
vt 1.0000 0.0000
vt 0.5000 1.0000
vt 0.9330 0.2500
vt 0.5000 0.0000
vt 1.0000 0.0000
vt 1.0000 1.0000
vt 1.0000 1.0000
vt 1.0000 0.0000
vn 0.4489 0.3610 -0.8174
vn 0.9301 0.3672 0.0000
vn 0.4489 0.3610 0.8174
vn -0.4489 0.3610 0.8174
vn 0.0000 1.0000 0.0000
vn -0.9301 0.3672 0.0000
vn -0.4489 0.3610 -0.8174
vn 0.0000 -1.0000 -0.0000
vn -0.3170 0.7347 -0.5998
vn -0.3605 0.6461 -0.6727
vn -0.3642 0.6288 -0.6870
vn -0.4051 0.5309 -0.7444
vn -0.4510 0.3750 -0.8099
vn -0.6629 0.7487 0.0000
vn -0.7572 0.6532 0.0000
vn -0.7628 0.6466 0.0000
vn -0.8385 0.5448 0.0000
vn -0.9240 0.3824 0.0000
vn -0.3151 0.7380 0.5967
vn -0.3674 0.6307 0.6835
vn -0.3642 0.6288 0.6870
vn -0.4051 0.5309 0.7444
vn -0.4510 0.3750 0.8099
vn 0.3152 0.7378 0.5969
vn 0.3673 0.6310 0.6833
vn 0.3642 0.6288 0.6870
vn 0.4051 0.5309 0.7444
vn 0.4510 0.3750 0.8099
vn 0.6634 0.7483 0.0000
vn 0.7568 0.6537 0.0000
vn 0.7628 0.6466 0.0000
vn 0.8385 0.5448 0.0000
vn 0.9240 0.3824 -0.0000
vn 0.3171 0.7345 -0.5999
vn 0.3604 0.6463 -0.6726
vn 0.3642 0.6288 -0.6870
vn 0.4051 0.5309 -0.7444
vn 0.4510 0.3750 -0.8099
vn 0.2836 -0.8236 0.4911
vn 0.5671 -0.8236 0.0000
vn 0.2836 -0.8236 -0.4911
vn -0.2836 -0.8236 -0.4911
vn -0.5671 -0.8236 0.0000
vn -0.2836 -0.8236 0.4911
vn -0.1943 -0.9214 0.3365
vn -0.3886 -0.9214 0.0000
vn -0.1943 -0.9214 -0.3365
vn 0.1943 -0.9214 -0.3365
vn 0.3886 -0.9214 0.0000
vn 0.1943 -0.9214 0.3365
vn -0.1123 -0.9745 0.1944
vn -0.2245 -0.9745 -0.0000
vn -0.1123 -0.9745 -0.1944
vn 0.1123 -0.9745 -0.1944
vn 0.2245 -0.9745 0.0000
vn 0.1123 -0.9745 0.1944
vn -0.1805 -0.9325 0.3127
vn -0.3611 -0.9325 0.0000
vn -0.1805 -0.9325 -0.3127
vn 0.1805 -0.9325 -0.3127
vn 0.3611 -0.9325 0.0000
vn 0.1805 -0.9325 0.3127
vn -0.0639 -0.9918 0.1108
vn -0.1279 -0.9918 0.0000
vn -0.0639 -0.9918 -0.1108
vn 0.0639 -0.9918 -0.1108
vn 0.1279 -0.9918 0.0000
vn 0.0639 -0.9918 0.1108
vn 0.0114 -0.9997 -0.0197
vn 0.0228 -0.9997 -0.0000
vn 0.0114 -0.9997 0.0197
vn -0.0114 -0.9997 0.0197
vn -0.0228 -0.9997 0.0000
vn -0.0114 -0.9997 -0.0197
vn -0.5115 -0.0222 0.8590
vn 0.4651 0.3672 -0.8055
vn 0.4651 0.3672 0.8055
vn -0.4651 0.3672 0.8055
vn -0.4651 0.3672 -0.8055
vn -0.3477 0.7186 -0.6023
vn -0.3753 0.6607 -0.6501
vn -0.3814 0.6466 -0.6606
vn -0.4193 0.5448 -0.7262
vn -0.4620 0.3824 -0.8002
vn -0.3282 0.7544 0.5685
vn -0.3818 0.6458 0.6613
vn -0.3814 0.6466 0.6606
vn -0.4193 0.5448 0.7262
vn -0.4620 0.3824 0.8002
vn 0.3283 0.7542 0.5687
vn 0.3817 0.6460 0.6611
vn 0.3814 0.6466 0.6606
vn 0.4193 0.5448 0.7262
vn 0.4620 0.3824 0.8002
vn 0.3478 0.7184 -0.6025
vn 0.3752 0.6610 -0.6499
vn 0.3814 0.6466 -0.6606
vn 0.4193 0.5448 -0.7262
vn 0.4620 0.3824 -0.8002
vn 0.2805 -0.7716 0.5709
vn 0.2805 -0.7716 -0.5709
vn -0.2805 -0.7716 -0.5709
vn -0.2805 -0.7716 0.5709
vn -0.1942 -0.8935 0.4050
vn -0.1942 -0.8935 -0.4050
vn 0.1942 -0.8935 -0.4050
vn 0.1942 -0.8935 0.4050
vn -0.1077 -0.9585 0.2638
vn -0.1077 -0.9585 -0.2638
vn 0.1077 -0.9585 -0.2638
vn 0.1077 -0.9585 0.2638
vn -0.1722 -0.9091 0.3793
vn -0.1722 -0.9091 -0.3793
vn 0.1722 -0.9091 -0.3793
vn 0.1722 -0.9091 0.3793
vn -0.0590 -0.9827 0.1756
vn -0.0590 -0.9827 -0.1756
vn 0.0590 -0.9827 -0.1756
vn 0.0590 -0.9827 0.1756
vn 0.0190 -0.9992 0.0360
vn 0.0190 -0.9992 -0.0360
vn -0.0190 -0.9992 -0.0360
vn -0.0190 -0.9992 0.0360
vn 0.5115 -0.0215 0.8590
vn 0.5112 -0.0430 -0.8584
vn -0.9995 -0.0325 0.0000
vn -0.5112 -0.0437 -0.8584
vn 0.9995 -0.0312 0.0000
s off
f 2/1/1 44/2/1 43/3/1
f 4/4/2 45/5/2 44/6/2
f 45/7/3 8/8/3 46/9/3
f 8/10/4 47/11/4 46/12/4
f 2/13/5 10/14/5 6/15/5
f 10/16/6 48/17/6 47/18/6
f 48/19/7 2/20/7 43/21/7
f 3/22/8 7/23/8 1/24/8
f 42/25/9 78/26/9 77/27/9
f 72/28/10 14/29/10 67/30/10
f 66/31/11 15/32/11 61/33/11
f 60/34/12 16/35/12 55/36/12
f 54/37/13 17/38/13 49/39/13
f 37/40/14 77/41/14 76/42/14
f 71/43/15 41/44/15 72/45/15
f 35/46/16 66/47/16 65/48/16
f 34/49/17 60/50/17 59/51/17
f 33/52/18 54/53/18 53/54/18
f 32/55/19 76/56/19 75/57/19
f 31/58/20 71/59/20 70/60/20
f 30/61/21 65/62/21 64/63/21
f 29/64/22 59/65/22 58/66/22
f 28/67/23 53/68/23 52/69/23
f 74/70/24 32/71/24 75/72/24
f 69/73/25 31/74/25 70/75/25
f 63/76/26 30/77/26 64/78/26
f 57/79/27 29/80/27 58/81/27
f 51/82/28 28/83/28 52/84/28
f 73/85/29 27/86/29 74/87/29
f 21/88/30 69/89/30 68/90/30
f 20/91/31 63/92/31 62/93/31
f 19/94/32 57/95/32 56/96/32
f 18/97/33 51/98/33 50/99/33
f 78/100/34 22/101/34 73/102/34
f 14/103/35 68/104/35 67/105/35
f 15/106/36 62/107/36 61/108/36
f 16/109/37 56/110/37 55/111/37
f 17/112/38 50/113/38 49/114/38
f 48/115/39 17/116/39 38/117/39
f 47/118/40 38/119/40 33/120/40
f 28/121/41 47/122/41 33/123/41
f 45/124/42 28/125/42 23/126/42
f 44/127/43 23/128/43 18/129/43
f 17/130/44 44/131/44 18/132/44
f 16/133/45 50/134/45 19/135/45
f 50/136/46 24/137/46 19/138/46
f 51/139/47 29/140/47 24/141/47
f 29/142/48 53/143/48 34/144/48
f 53/145/49 39/146/49 34/147/49
f 54/148/50 16/149/50 39/150/50
f 15/151/51 56/152/51 20/153/51
f 56/154/52 25/155/52 20/156/52
f 57/157/53 30/158/53 25/159/53
f 30/160/54 59/161/54 35/162/54
f 35/163/55 60/164/55 40/165/55
f 60/166/56 15/167/56 40/168/56
f 14/169/57 62/170/57 21/171/57
f 62/172/58 26/173/58 21/174/58
f 63/175/59 31/176/59 26/177/59
f 31/178/60 65/179/60 36/180/60
f 65/181/61 41/182/61 36/183/61
f 66/184/62 14/185/62 41/186/62
f 13/187/63 68/188/63 22/189/63
f 68/190/64 27/191/64 22/192/64
f 69/193/65 32/194/65 27/195/65
f 32/196/66 71/197/66 37/198/66
f 71/199/67 42/200/67 37/201/67
f 72/202/68 13/203/68 42/204/68
f 1/205/69 73/206/69 3/207/69
f 73/208/70 5/209/70 3/210/70
f 74/211/71 7/212/71 5/213/71
f 7/214/72 76/215/72 9/216/72
f 76/217/73 11/218/73 9/219/73
f 77/220/74 1/221/74 11/222/74
f 90/223/8 88/224/8 84/225/8
f 84/226/75 85/227/75 83/228/75
f 2/1/76 4/229/76 44/2/76
f 4/4/2 6/230/2 45/5/2
f 45/7/77 6/231/77 8/8/77
f 8/10/78 10/232/78 47/11/78
f 6/15/5 4/233/5 2/13/5
f 2/13/5 12/234/5 10/14/5
f 10/14/5 8/235/5 6/15/5
f 10/16/6 12/236/6 48/17/6
f 48/19/79 12/237/79 2/20/79
f 11/238/8 1/24/8 7/23/8
f 3/22/8 5/239/8 7/23/8
f 7/23/8 9/240/8 11/238/8
f 42/25/80 13/241/80 78/26/80
f 72/28/81 41/242/81 14/29/81
f 66/31/82 40/243/82 15/32/82
f 60/34/83 39/244/83 16/35/83
f 54/37/84 38/245/84 17/38/84
f 37/40/14 42/246/14 77/41/14
f 71/43/15 36/247/15 41/44/15
f 35/46/16 40/248/16 66/47/16
f 34/49/17 39/249/17 60/50/17
f 33/52/18 38/250/18 54/53/18
f 32/55/85 37/251/85 76/56/85
f 31/58/86 36/252/86 71/59/86
f 30/61/87 35/253/87 65/62/87
f 29/64/88 34/254/88 59/65/88
f 28/67/89 33/255/89 53/68/89
f 74/70/90 27/256/90 32/71/90
f 69/73/91 26/257/91 31/74/91
f 63/76/92 25/258/92 30/77/92
f 57/79/93 24/259/93 29/80/93
f 51/82/94 23/260/94 28/83/94
f 73/85/29 22/261/29 27/86/29
f 21/88/30 26/262/30 69/89/30
f 20/91/31 25/263/31 63/92/31
f 19/94/32 24/264/32 57/95/32
f 18/97/33 23/265/33 51/98/33
f 78/100/95 13/266/95 22/101/95
f 14/103/96 21/267/96 68/104/96
f 15/106/97 20/268/97 62/107/97
f 16/109/98 19/269/98 56/110/98
f 17/112/99 18/270/99 50/113/99
f 48/115/100 43/271/100 17/116/100
f 47/118/40 48/272/40 38/119/40
f 28/121/101 46/273/101 47/122/101
f 45/124/102 46/274/102 28/125/102
f 44/127/43 45/275/43 23/128/43
f 17/130/103 43/276/103 44/131/103
f 16/133/104 49/277/104 50/134/104
f 50/136/46 51/278/46 24/137/46
f 51/139/105 52/279/105 29/140/105
f 29/142/106 52/280/106 53/143/106
f 53/145/49 54/281/49 39/146/49
f 54/148/107 49/282/107 16/149/107
f 15/151/108 55/283/108 56/152/108
f 56/154/52 57/284/52 25/155/52
f 57/157/109 58/285/109 30/158/109
f 30/160/110 58/286/110 59/161/110
f 35/163/55 59/287/55 60/164/55
f 60/166/111 55/288/111 15/167/111
f 14/169/112 61/289/112 62/170/112
f 62/172/58 63/290/58 26/173/58
f 63/175/113 64/291/113 31/176/113
f 31/178/114 64/292/114 65/179/114
f 65/181/61 66/293/61 41/182/61
f 66/184/115 61/294/115 14/185/115
f 13/187/116 67/295/116 68/188/116
f 68/190/64 69/296/64 27/191/64
f 69/193/117 70/297/117 32/194/117
f 32/196/118 70/298/118 71/197/118
f 71/199/67 72/299/67 42/200/67
f 72/202/119 67/300/119 13/203/119
f 1/205/120 78/301/120 73/206/120
f 73/208/70 74/302/70 5/209/70
f 74/211/121 75/303/121 7/212/121
f 7/214/122 75/304/122 76/215/122
f 76/217/73 77/305/73 11/218/73
f 77/220/123 78/306/123 1/221/123
f 84/225/8 82/307/8 90/223/8
f 79/308/8 90/223/8 82/307/8
f 88/224/8 86/309/8 84/225/8
f 84/226/75 86/310/75 85/227/75
f 85/311/124 88/312/124 87/313/124
f 81/314/5 87/315/5 89/316/5
f 89/317/125 79/318/125 80/319/125
f 82/320/126 83/321/126 81/322/126
f 79/323/127 81/324/127 80/325/127
f 87/326/128 90/327/128 89/328/128
f 85/311/124 86/329/124 88/312/124
f 89/316/5 80/330/5 81/314/5
f 81/314/5 83/331/5 87/315/5
f 85/332/5 87/315/5 83/331/5
f 89/317/125 90/333/125 79/318/125
f 82/320/126 84/334/126 83/321/126
f 79/323/127 82/335/127 81/324/127
f 87/326/128 88/336/128 90/327/128
